<?xml version="1.0" standalone="no"?>
<!DOCTYPE svg PUBLIC "-//W3C//DTD SVG 20010904//EN"
 "http://www.w3.org/TR/2001/REC-SVG-20010904/DTD/svg10.dtd">
<svg version="1.0" xmlns="http://www.w3.org/2000/svg"
 width="4096.000000pt" height="4096.000000pt" viewBox="0 0 4096.000000 4096.000000"
 preserveAspectRatio="xMidYMid meet">
<metadata>
Created by potrace 1.14, written by Peter Selinger 2001-2017
</metadata>
<g transform="translate(0.000000,4096.000000) scale(0.100000,-0.100000)"
fill="#000000" stroke="none">
<path d="M7205 23353 c-65 -9 -194 -47 -262 -78 -267 -122 -465 -368 -529
-658 -26 -112 -23 -300 5 -412 74 -291 279 -533 545 -644 57 -24 1773 -506
3336 -938 151 -42 278 -79 282 -82 4 -4 -327 -97 -735 -208 -2253 -614 -2726
-743 -2763 -756 -227 -81 -436 -275 -536 -496 -103 -226 -108 -504 -13 -739
106 -261 334 -465 612 -548 106 -32 291 -43 399 -25 38 7 249 61 469 121 220
60 1089 296 1930 525 1404 382 3464 943 4170 1135 338 92 382 107 473 155 214
112 372 310 449 560 25 84 27 102 27 265 0 162 -2 182 -28 264 -96 315 -315
535 -626 630 -47 14 -182 52 -300 85 -118 33 -1203 335 -2410 671 -1207 336
-2413 672 -2680 746 -267 74 -620 173 -785 219 -577 161 -700 194 -765 204
-63 10 -203 12 -265 4z"/>
<path d="M33465 23346 c-38 -8 -799 -217 -1690 -466 -891 -248 -2234 -622
-2985 -831 -2244 -625 -2289 -638 -2364 -673 -251 -116 -421 -313 -502 -582
-37 -126 -45 -327 -16 -465 61 -296 265 -545 538 -659 83 -34 -24 -5 2054
-570 872 -237 2319 -631 3215 -875 897 -244 1661 -449 1699 -456 107 -18 291
-6 399 25 337 100 591 372 662 711 22 105 22 277 0 380 -64 303 -283 565 -566
678 -55 22 -889 251 -3231 888 -169 46 -304 87 -300 90 4 3 264 77 577 164
314 87 712 197 885 246 173 48 698 194 1165 324 468 130 879 245 915 257 306
99 540 352 621 673 31 124 31 303 1 429 -71 287 -260 519 -525 641 -158 73
-389 103 -552 71z"/>
<path d="M19170 16470 c-3540 -55 -6929 -389 -10264 -1011 -338 -63 -1378
-269 -1385 -275 -6 -6 48 -448 85 -689 152 -988 409 -1932 779 -2855 144 -360
256 -608 436 -970 265 -531 490 -920 815 -1405 292 -437 289 -431 443 -638
608 -813 1376 -1609 2191 -2273 1992 -1622 4398 -2616 6955 -2873 1082 -109
2169 -84 3256 74 2467 360 4817 1445 6704 3094 559 488 1135 1088 1596 1661
1409 1751 2343 3839 2704 6041 60 370 126 911 112 925 -7 8 -366 67 -1057 174
-3572 553 -7038 889 -10215 990 -977 31 -2293 44 -3155 30z m600 -7261 c-74
-5 -182 -13 -240 -18 -103 -10 -102 -10 50 -6 85 3 238 10 340 16 102 6 390
11 640 11 250 0 538 -5 640 -11 102 -6 255 -13 340 -16 151 -4 152 -4 50 6
-58 5 -163 13 -235 18 -127 9 -126 10 60 6 105 -3 260 -12 345 -20 85 -9 234
-18 330 -20 98 -2 219 -10 275 -20 55 -9 177 -18 271 -20 94 -2 191 -9 216
-14 24 -6 60 -8 80 -5 40 7 85 -1 338 -62 145 -35 209 -46 295 -49 77 -3 128
-10 169 -24 65 -23 102 -27 46 -6 l-35 13 30 1 c25 1 109 -25 216 -67 15 -6
56 -12 93 -14 36 -1 66 -5 66 -9 0 -3 13 -4 29 -1 20 3 57 -9 116 -37 48 -23
102 -41 119 -41 l31 1 -25 14 c-23 13 -23 14 -4 15 16 0 151 -76 292 -163 6
-5 12 -6 12 -4 0 3 -35 26 -77 53 -115 71 -120 74 -102 74 9 0 61 -29 116 -63
67 -43 114 -66 142 -70 24 -3 41 -4 39 -2 -2 2 -43 31 -92 64 -50 34 -83 61
-75 61 15 0 97 -54 171 -111 21 -17 43 -27 52 -23 8 3 30 -5 49 -20 22 -17 52
-28 93 -32 38 -5 70 -15 90 -30 17 -13 46 -27 65 -31 31 -6 33 -5 20 10 -12
15 -11 17 3 17 9 0 16 -4 16 -9 0 -5 14 -14 32 -20 18 -6 44 -22 58 -35 14
-13 39 -26 57 -28 33 -5 34 1 5 35 -15 16 -14 17 4 10 10 -4 27 -17 37 -30 10
-13 28 -23 39 -23 25 0 32 -9 99 -117 34 -57 56 -83 69 -83 17 0 15 7 -16 61
-18 33 -43 74 -55 91 -12 16 -18 32 -14 36 9 9 38 -30 86 -116 40 -71 63 -89
103 -80 12 2 5 22 -34 92 -28 49 -48 91 -46 94 5 4 52 -76 91 -153 13 -25 29
-41 45 -45 21 -5 30 -20 55 -87 17 -44 36 -87 42 -94 6 -8 16 -33 22 -56 11
-40 14 -43 46 -43 40 0 40 -1 19 69 -8 29 -13 55 -11 57 6 7 24 -45 32 -88 5
-35 8 -38 40 -38 31 0 35 -3 35 -25 0 -18 7 -28 26 -35 36 -14 37 -14 32 25
-2 19 0 35 4 35 4 0 8 -13 8 -29 0 -17 5 -33 10 -36 6 -4 71 -14 144 -23 l133
-16 7 -65 c3 -36 6 -96 6 -133 0 -57 3 -68 17 -68 14 0 15 -12 10 -120 -6
-103 -5 -120 8 -120 11 0 15 11 15 38 0 22 3 73 6 115 l7 75 96 -34 c58 -21
103 -43 113 -57 20 -25 25 -112 7 -123 -8 -5 -8 -9 1 -14 15 -9 -1 -115 -30
-200 -10 -30 -22 -73 -26 -95 -3 -22 -19 -57 -35 -77 -22 -28 -29 -47 -29 -81
0 -49 9 -40 -120 -119 l-45 -28 58 0 c56 0 57 0 57 -29 0 -17 -4 -32 -9 -35
-5 -3 -12 -18 -15 -32 -4 -15 -20 -46 -35 -68 -16 -23 -33 -57 -40 -76 -6 -19
-19 -44 -29 -56 -17 -20 -137 -91 -339 -202 l-93 -51 64 82 c72 93 156 222
204 315 32 60 32 62 10 51 -13 -5 -37 -36 -53 -67 -61 -115 -229 -348 -295
-407 l-22 -20 82 -5 82 -5 -188 -97 c-104 -53 -273 -135 -376 -182 -102 -47
-223 -108 -267 -136 -44 -27 -135 -79 -203 -115 l-123 -65 80 -1 80 -1 -149
-73 c-371 -182 -896 -360 -1433 -485 -92 -21 -177 -41 -188 -44 -11 -2 12 -4
50 -4 39 0 108 -1 155 -2 l85 -2 -195 -49 c-625 -157 -1322 -263 -2070 -316
-345 -24 -1195 -24 -1540 0 -753 54 -1444 159 -2070 316 l-195 49 85 2 c47 2
121 2 165 1 l80 -1 -145 34 c-595 138 -1117 313 -1505 505 l-140 69 80 2 80 1
-60 30 c-33 17 -123 66 -200 109 -77 44 -174 93 -215 110 -41 17 -217 102
-390 188 l-315 157 88 3 c48 1 87 5 87 8 0 3 -25 33 -55 67 -73 82 -174 223
-227 319 -25 44 -53 81 -67 88 -31 14 -28 8 50 -122 69 -115 117 -182 195
-274 l52 -62 -101 56 c-190 102 -312 174 -339 200 -15 14 -35 46 -45 71 -10
25 -30 64 -45 86 -25 39 -68 135 -68 155 0 5 21 10 48 12 l47 3 -67 40 -67 40
-7 60 c-4 40 -15 70 -31 91 -13 18 -26 49 -29 71 -3 21 -10 47 -15 58 -39 86
-70 366 -44 392 8 7 52 27 97 42 143 50 128 55 128 -41 0 -102 9 -158 24 -158
9 0 11 33 8 121 -3 86 -1 123 7 129 7 4 16 56 21 130 6 68 12 126 15 129 8 7
262 43 299 41 34 -1 56 15 56 41 0 15 7 19 34 19 31 0 34 3 40 39 7 46 25 96
31 89 2 -2 -2 -26 -10 -53 -21 -69 -20 -75 19 -75 31 0 34 3 46 48 8 26 18 50
23 53 5 4 20 35 32 70 41 115 43 119 67 119 19 0 32 17 67 85 24 47 53 93 65
102 18 17 18 15 -2 -17 -25 -39 -82 -146 -82 -155 0 -3 15 -5 34 -5 30 0 37 5
56 43 12 23 34 60 49 82 15 22 30 48 34 58 3 9 13 17 22 17 13 0 10 -9 -13
-42 -34 -51 -82 -134 -82 -142 0 -3 8 -6 18 -5 11 0 38 34 73 92 46 75 63 94
89 101 17 5 39 20 47 33 8 13 22 23 31 23 12 0 10 -6 -9 -26 l-24 -27 40 6
c25 4 48 16 62 32 12 14 31 25 41 25 11 0 25 7 32 15 14 17 45 21 35 5 -14
-23 52 -8 85 19 27 21 48 29 91 33 35 3 67 12 86 26 16 11 41 23 56 26 14 2
61 29 104 60 44 30 93 60 109 66 38 15 25 4 -68 -59 -43 -28 -78 -54 -78 -57
0 -17 83 13 141 50 75 50 143 86 161 86 7 0 -16 -17 -52 -38 -77 -45 -147 -92
-138 -92 4 0 38 20 75 44 92 59 217 126 234 126 8 0 1 -9 -15 -19 l-29 -20 43
6 c24 4 82 24 128 45 55 25 96 38 120 37 67 -3 155 13 247 46 50 18 113 35
140 38 l50 6 -50 -18 c-71 -27 -42 -25 41 2 51 17 96 24 173 26 82 2 142 11
285 46 250 60 293 68 331 61 18 -4 55 -2 82 4 26 6 122 13 213 16 91 2 233 14
315 25 108 15 178 20 250 16 55 -3 136 -1 180 4 177 21 408 37 540 36 l140 0
-135 -8z m-1277 -56 c-7 -2 -21 -2 -30 0 -10 3 -4 5 12 5 17 0 24 -2 18 -5z
m4170 0 c-7 -2 -21 -2 -30 0 -10 3 -4 5 12 5 17 0 24 -2 18 -5z m-4230 -10
c-7 -2 -19 -2 -25 0 -7 3 -2 5 12 5 14 0 19 -2 13 -5z m4280 0 c-7 -2 -19 -2
-25 0 -7 3 -2 5 12 5 14 0 19 -2 13 -5z m-4896 -49 c-3 -3 -12 -4 -19 -1 -8 3
-5 6 6 6 11 1 17 -2 13 -5z m5510 0 c-3 -3 -12 -4 -19 -1 -8 3 -5 6 6 6 11 1
17 -2 13 -5z m-5550 -10 c-3 -3 -12 -4 -19 -1 -8 3 -5 6 6 6 11 1 17 -2 13 -5z
m5590 0 c-3 -3 -12 -4 -19 -1 -8 3 -5 6 6 6 11 1 17 -2 13 -5z m-5630 -10 c-3
-3 -12 -4 -19 -1 -8 3 -5 6 6 6 11 1 17 -2 13 -5z m5670 0 c-3 -3 -12 -4 -19
-1 -8 3 -5 6 6 6 11 1 17 -2 13 -5z m-5710 -10 c-3 -3 -12 -4 -19 -1 -8 3 -5
6 6 6 11 1 17 -2 13 -5z m5750 0 c-3 -3 -12 -4 -19 -1 -8 3 -5 6 6 6 11 1 17
-2 13 -5z m-5820 -20 c-3 -3 -12 -4 -19 -1 -8 3 -5 6 6 6 11 1 17 -2 13 -5z
m5890 0 c-3 -3 -12 -4 -19 -1 -8 3 -5 6 6 6 11 1 17 -2 13 -5z m-5942 -14
c-11 -5 -27 -9 -35 -9 -9 0 -8 4 5 9 11 5 27 9 35 9 9 0 8 -4 -5 -9z m6000 0
c13 -5 14 -9 5 -9 -8 0 -24 4 -35 9 -13 5 -14 9 -5 9 8 0 24 -4 35 -9z m2374
-865 c0 -11 -9 3 -19 30 -25 62 -25 70 0 25 11 -19 19 -44 19 -55z m-10763 19
c-11 -29 -15 -33 -15 -16 -1 20 19 65 26 58 2 -1 -3 -20 -11 -42z m-199 -236
c-3 -7 -5 -2 -5 12 0 14 2 19 5 13 2 -7 2 -19 0 -25z m-703 -609 c3 -17 6 -74
6 -126 0 -68 6 -110 20 -154 12 -34 19 -64 16 -66 -3 -3 -25 7 -50 23 l-44 28
-7 85 c-4 47 -13 106 -20 131 -7 25 -16 60 -19 78 l-5 32 48 0 c46 0 49 -1 55
-31z m12642 -25 c-3 -31 -13 -69 -21 -84 -9 -18 -15 -57 -15 -98 l0 -70 -47
-30 c-26 -17 -48 -30 -50 -29 -1 2 5 23 14 47 9 26 17 90 20 150 2 58 6 120 9
138 5 31 7 32 51 32 l46 0 -7 -56z m-12527 -586 c11 -36 28 -80 49 -122 3 -4
-24 10 -59 32 -51 33 -66 48 -81 86 l-18 46 49 0 c48 0 48 0 60 -42z m12421
33 c0 -36 -26 -70 -81 -104 -33 -20 -59 -34 -57 -29 1 4 14 38 27 75 l25 67
43 0 c24 0 43 -4 43 -9z m-10739 -1241 c113 -57 326 -152 437 -195 121 -47 73
-39 -64 11 -126 45 -575 223 -583 230 -2 2 21 4 53 4 48 0 71 -8 157 -50z
m9129 41 c-27 -16 -472 -192 -476 -188 -2 2 45 25 104 52 59 27 150 71 202 97
72 36 106 48 140 48 31 -1 40 -3 30 -9z m-500 -201 c-8 -5 -19 -10 -25 -10 -5
0 -3 5 5 10 8 5 20 10 25 10 6 0 3 -5 -5 -10z m-7093 -376 c-3 -3 -12 -4 -19
-1 -8 3 -5 6 6 6 11 1 17 -2 13 -5z m50 -10 c-3 -3 -12 -4 -19 -1 -8 3 -5 6 6
6 11 1 17 -2 13 -5z"/>
<path d="M19028 9163 c12 -2 30 -2 40 0 9 3 -1 5 -23 4 -22 0 -30 -2 -17 -4z"/>
<path d="M22058 9163 c12 -2 30 -2 40 0 9 3 -1 5 -23 4 -22 0 -30 -2 -17 -4z"/>
<path d="M18943 9153 c9 -2 25 -2 35 0 9 3 1 5 -18 5 -19 0 -27 -2 -17 -5z"/>
<path d="M22143 9153 c9 -2 25 -2 35 0 9 3 1 5 -18 5 -19 0 -27 -2 -17 -5z"/>
<path d="M18120 9100 c-20 -6 -21 -8 -5 -8 11 0 34 4 50 8 27 7 27 8 5 8 -14
0 -36 -4 -50 -8z"/>
<path d="M22943 9103 c9 -2 23 -2 30 0 6 3 -1 5 -18 5 -16 0 -22 -2 -12 -5z"/>
<path d="M22998 9093 c7 -3 16 -2 19 1 4 3 -2 6 -13 5 -11 0 -14 -3 -6 -6z"/>
<path d="M18058 9083 c6 -2 18 -2 25 0 6 3 1 5 -13 5 -14 0 -19 -2 -12 -5z"/>
<path d="M23038 9083 c6 -2 18 -2 25 0 6 3 1 5 -13 5 -14 0 -19 -2 -12 -5z"/>
<path d="M18008 9073 c6 -2 18 -2 25 0 6 3 1 5 -13 5 -14 0 -19 -2 -12 -5z"/>
<path d="M23088 9073 c6 -2 18 -2 25 0 6 3 1 5 -13 5 -14 0 -19 -2 -12 -5z"/>
<path d="M17968 9063 c7 -3 16 -2 19 1 4 3 -2 6 -13 5 -11 0 -14 -3 -6 -6z"/>
<path d="M23138 9063 c7 -3 16 -2 19 1 4 3 -2 6 -13 5 -11 0 -14 -3 -6 -6z"/>
<path d="M17928 9053 c7 -3 16 -2 19 1 4 3 -2 6 -13 5 -11 0 -14 -3 -6 -6z"/>
<path d="M23178 9053 c7 -3 16 -2 19 1 4 3 -2 6 -13 5 -11 0 -14 -3 -6 -6z"/>
<path d="M17830 9035 c-25 -7 -38 -13 -30 -14 8 0 38 6 65 13 28 8 41 14 30
14 -11 0 -40 -6 -65 -13z"/>
<path d="M23255 9034 c28 -7 57 -13 65 -13 8 0 -7 7 -35 15 -27 7 -57 13 -65
13 -8 0 8 -7 35 -15z"/>
<path d="M16920 8880 c-19 -11 -30 -19 -25 -19 6 0 26 8 45 19 19 11 31 19 25
19 -5 0 -26 -8 -45 -19z"/>
<path d="M24190 8875 c14 -8 30 -14 35 -14 6 0 -1 6 -15 14 -14 8 -29 14 -35
14 -5 0 1 -6 15 -14z"/>
<path d="M24270 8840 c8 -5 20 -10 25 -10 6 0 3 5 -5 10 -8 5 -19 10 -25 10
-5 0 -3 -5 5 -10z"/>
<path d="M16209 8650 c-13 -10 -19 -19 -13 -20 6 0 19 9 29 20 23 26 14 26
-16 0z"/>
<path d="M24904 8641 c11 -11 23 -21 28 -21 14 0 -1 19 -25 31 -22 12 -22 12
-3 -10z"/>
<path d="M26433 7158 c-6 -7 -19 -42 -29 -78 -16 -57 -79 -244 -99 -292 -5
-13 -2 -18 9 -18 19 0 29 22 74 152 32 92 67 236 60 244 -3 2 -10 -1 -15 -8z"/>
<path d="M14670 7138 c1 -24 38 -154 70 -244 18 -49 34 -97 37 -106 3 -10 14
-18 24 -18 18 0 18 1 -1 48 -17 41 -37 103 -94 286 -12 38 -36 62 -36 34z"/>
</g>
</svg>
